<svg aria-hidden="true" style="position: absolute; width: 0; height: 0; overflow: hidden;" version="1.1" xmlns="http://www.w3.org/2000/svg" xmlns:xlink="http://www.w3.org/1999/xlink">
<defs>
<symbol id="arrow-left" viewBox="0 0 32 32">
<path d="M7.586 14.586c-0.781 0.781-0.781 2.047 0 2.828l12.728 12.728c0.781 0.781 2.047 0.781 2.828 0s0.781-2.047 0-2.828l-11.314-11.314 11.314-11.314c0.781-0.781 0.781-2.047 0-2.828s-2.047-0.781-2.828 0l-12.728 12.728zM11 14h-2v4h2v-4z"></path>
</symbol>
<symbol id="arrow-right" viewBox="0 0 32 32">
<path d="M24.414 17.414c0.781-0.781 0.781-2.047 0-2.828l-12.728-12.728c-0.781-0.781-2.047-0.781-2.828 0s-0.781 2.047 0 2.828l11.314 11.314-11.314 11.314c-0.781 0.781-0.781 2.047 0 2.828s2.047 0.781 2.828 0l12.728-12.728zM21 18h2v-4h-2v4z"></path>
</symbol>
<symbol id="bottle" viewBox="0 0 32 32">
<path d="M10.964 11.775c0.087-0.032 0.157-0.098 0.195-0.182s0.042-0.18 0.010-0.267l-0.041-0.109c-0.032-0.087-0.098-0.157-0.182-0.195s-0.18-0.042-0.267-0.010-0.157 0.098-0.195 0.182c-0.038 0.084-0.042 0.18-0.010 0.267l0.041 0.109c0.032 0.087 0.098 0.157 0.182 0.195s0.18 0.042 0.267 0.010z"></path>
<path d="M13.359 18.202c0.087-0.032 0.157-0.098 0.195-0.182s0.042-0.18 0.010-0.267l-1.868-5.011c-0.032-0.087-0.098-0.157-0.182-0.195s-0.18-0.042-0.267-0.010c-0.087 0.032-0.157 0.098-0.195 0.182s-0.042 0.18-0.010 0.267l1.868 5.011c0.032 0.087 0.098 0.157 0.182 0.195s0.18 0.042 0.267 0.010z"></path>
<path d="M17.606 31.259l7.625-2.842c0.375-0.14 0.679-0.424 0.846-0.788s0.182-0.78 0.042-1.156l-7.146-19.172c-0.22-0.587-0.657-1.068-1.221-1.342s-1.212-0.321-1.809-0.131l-0.366-0.983 0.218-0.081c0.087-0.032 0.157-0.098 0.195-0.182s0.042-0.18 0.009-0.267l-0.65-1.743c-0.14-0.375-0.424-0.68-0.788-0.846s-0.78-0.182-1.156-0.042l-4.357 1.624c-0.375 0.14-0.68 0.424-0.846 0.788s-0.182 0.78-0.042 1.156l0.65 1.743c0.032 0.087 0.098 0.157 0.182 0.195s0.18 0.042 0.267 0.010l0.218-0.081 0.366 0.983c-0.576 0.247-1.035 0.707-1.282 1.283s-0.263 1.226-0.045 1.814l7.146 19.172c0.14 0.375 0.424 0.68 0.788 0.846s0.78 0.182 1.156 0.042zM8.814 5.009c-0.075-0.202-0.067-0.426 0.023-0.622s0.254-0.349 0.456-0.424l4.357-1.624c0.202-0.075 0.426-0.067 0.622 0.023s0.349 0.254 0.424 0.456l0.528 1.416-5.882 2.192-0.528-1.416zM14.923 5.089l0.365 0.98-4.793 1.787-0.365-0.98 4.793-1.787zM9.17 10.955c-0.161-0.433-0.143-0.913 0.049-1.333s0.543-0.748 0.976-0.91l5.882-2.193c0.433-0.161 0.913-0.143 1.333 0.049s0.748 0.543 0.91 0.976l1.816 4.873-4.814 1.795c-0.087 0.032-0.157 0.098-0.195 0.182s-0.042 0.18-0.010 0.267l0.555 1.489c0.032 0.087 0.098 0.157 0.182 0.195s0.18 0.042 0.267 0.010c0.087-0.032 0.157-0.098 0.195-0.182s0.042-0.18 0.010-0.267l-0.433-1.162 4.487-1.673 3.009 8.074-4.487 1.673-1.561-4.189c-0.032-0.087-0.098-0.157-0.182-0.195s-0.18-0.042-0.267-0.010c-0.087 0.032-0.157 0.098-0.195 0.182s-0.042 0.18-0.010 0.267l1.683 4.515c0.032 0.087 0.098 0.157 0.182 0.195s0.18 0.042 0.267 0.010l4.814-1.794 1.833 4.917c0.075 0.202 0.067 0.426-0.023 0.622s-0.254 0.349-0.456 0.424l-7.625 2.842c-0.202 0.075-0.426 0.067-0.622-0.023s-0.349-0.254-0.424-0.456l-7.146-19.171z"></path>
</symbol>
<symbol id="carrot" viewBox="0 0 32 32">
<path d="M15.461 3.637v0c-0.619 0.042-1.188 0.284-1.636 0.683l-0.099 0.088-0.083-0.103c-0.777-0.955-2.133-1.301-3.298-0.756s-1.769 1.807-1.534 3.016l0.025 0.13-0.131 0.019c-0.594 0.088-1.144 0.37-1.574 0.818v0c-0.508 0.53-0.779 1.226-0.764 1.96v0c0.016 0.734 0.316 1.417 0.846 1.925l8.247-7.781zM15.461 3.637c0.733-0.050 1.44 0.188 1.994 0.67l0.083-0.095M15.461 3.637l2.077 0.575M17.537 4.212l-0.083 0.095c0.554 0.482 0.885 1.151 0.935 1.883 0.015 0.228-0.041 0.686-0.689 2.304-0.234 0.585-0.483 1.164-0.669 1.589l-0.057 0.129 0.135 0.042c1.261 0.395 2.359 1.297 2.962 2.585 0.635 1.358 1.727 4.88 2.376 8.193 0.362 1.848 0.541 3.38 0.534 4.554v0c-0.005 0.793-0.097 1.413-0.272 1.873-0.175 0.457-0.429 0.749-0.759 0.904s-0.717 0.162-1.18 0.003c-0.465-0.16-1-0.487-1.612-0.992v0c-0.906-0.747-1.967-1.866-3.153-3.329-2.127-2.622-4.13-5.718-4.765-7.075-0.603-1.288-0.591-2.709-0.086-3.93l0.054-0.13M17.537 4.212l-6.329 8.698M11.208 12.91l-0.135-0.039c-0.446-0.129-1.049-0.31-1.649-0.505l-0.039 0.12M11.208 12.91l-1.823-0.424M9.385 12.486l0.039-0.12M9.385 12.486l0.039-0.12M7.786 10.821l0-0c-0.37-0.355-0.58-0.833-0.591-1.345l0.591 1.345zM7.786 10.821l0.006 0.005M7.786 10.821l0.006 0.005M7.792 10.826c0.070 0.060 0.212 0.132 0.398 0.213 0.192 0.084 0.449 0.183 0.765 0.296 0.632 0.225 1.505 0.503 2.58 0.81l0.086 0.025 0.052-0.073c0.171-0.242 0.364-0.47 0.579-0.68l0.086-0.084-0.080-0.090c-1.445-1.636-2.532-2.896-3.031-3.67l-0.037-0.058-0.068-0c-0.525-0.002-1.024 0.208-1.393 0.593h-0M7.792 10.826l-0.063-2.72M7.729 8.105c-0.355 0.37-0.545 0.857-0.534 1.37l0.534-1.37zM9.424 12.366c-1.657-0.54-2.045-0.79-2.21-0.948l2.21 0.948zM14.138 10.273l0.102-0.033-0.016-0.106c-0.132-0.864-0.298-1.923-0.468-2.847-0.085-0.462-0.172-0.891-0.256-1.246-0.084-0.352-0.168-0.641-0.249-0.816-0.449-0.959-1.594-1.374-2.554-0.925s-1.376 1.594-0.927 2.553c0.079 0.17 0.239 0.408 0.448 0.687 0.21 0.281 0.475 0.611 0.77 0.965 0.589 0.708 1.301 1.517 1.936 2.235l0.071 0.080 0.091-0.056c0.162-0.1 0.331-0.192 0.507-0.275 0.18-0.084 0.363-0.156 0.548-0.217zM17.635 24.45l-0.152 0.071 0.111 0.126c1.155 1.314 2.037 2.099 2.681 2.535 0.322 0.218 0.588 0.351 0.802 0.419 0.21 0.066 0.39 0.075 0.523 0.013 0.149-0.070 0.268-0.242 0.357-0.494 0.091-0.257 0.159-0.623 0.185-1.119 0.053-0.992-0.060-2.527-0.507-4.81-0.635-3.243-1.693-6.675-2.314-8.002-0.946-2.022-3.36-2.897-5.381-1.952s-2.897 3.36-1.951 5.381c0.62 1.326 2.577 4.339 4.658 6.905 0.074 0.091 0.146 0.18 0.218 0.267l0.062 0.076 1.87-0.875c0.207-0.097 0.453-0.008 0.55 0.2s0.008 0.453-0.2 0.55l-1.514 0.708zM17.564 6.25h0l-0.001-0.008c-0.035-0.507-0.267-0.975-0.653-1.311s-0.882-0.503-1.394-0.468c-0.532 0.036-1.013 0.285-1.348 0.69l-0.044 0.053 0.020 0.065c0.286 0.915 0.573 2.646 0.886 4.678l0.018 0.118 0.119-0.012c0.295-0.029 0.59-0.031 0.882-0.007l0.089 0.008 0.036-0.082c0.454-1.022 0.8-1.87 1.033-2.5 0.116-0.315 0.204-0.576 0.264-0.778 0.057-0.196 0.092-0.351 0.092-0.444z"></path>
<path d="M14.951 14.747c0.207-0.097 0.453-0.008 0.55 0.199s0.008 0.453-0.199 0.55l-1.731 0.809c-0.207 0.097-0.453 0.008-0.55-0.2s-0.008-0.453 0.199-0.55l1.731-0.809z"></path>
<path d="M16.443 18.403l2.769-1.295c0.207-0.097 0.453-0.008 0.55 0.2s0.008 0.453-0.199 0.55l-2.769 1.295c-0.207 0.097-0.453 0.008-0.55-0.199s-0.008-0.453 0.199-0.55z"></path>
</symbol>
<symbol id="chat" viewBox="0 0 32 32">
<path stroke-linejoin="miter" stroke-linecap="butt" stroke-miterlimit="4" stroke-width="0.8" d="M27.471 18.265v0c-0.414 0.167-0.613 0.638-0.446 1.051l1.791 4.431-5.125-2.259c0 0 0 0 0 0-0.204-0.090-0.437-0.092-0.643-0.004v0c-1.494 0.638-3.094 0.96-4.753 0.96-6.678 0-11.208-5.233-11.208-10.189 0-5.655 5.066-10.19 11.208-10.19s11.208 4.534 11.208 10.19c0 0.443-0.041 0.967-0.112 1.442v0c-0.066 0.441 0.238 0.852 0.68 0.918l0 0c0.441 0.066 0.852-0.238 0.918-0.68v-0c0.084-0.561 0.13-1.159 0.13-1.681 0-3.163-1.338-6.135-3.782-8.372v-0c-2.416-2.211-5.625-3.433-9.041-3.433s-6.626 1.222-9.041 3.433c-2.184 1.999-3.483 4.586-3.735 7.369l-0.017 0.191-0.16 0.106c-2.731 1.808-4.337 4.696-4.337 7.793 0 1.938 0.61 3.776 1.774 5.361l0.132 0.18-1.847 4.57c-0.123 0.305-0.049 0.654 0.187 0.883h0c0.154 0.149 0.356 0.228 0.562 0.228l25.659-12.299zM27.471 18.265c0.413-0.167 0.884 0.032 1.051 0.446 0 0 0 0 0 0l2.537 6.275c0.123 0.305 0.049 0.654-0.187 0.883v0M27.471 18.265l3.401 7.604M2.137 30.496h0l5.234-2.307 0.152 0.057c1.234 0.459 2.539 0.692 3.888 0.692 0.012 0 0.026-0.001 0.060-0.004l0.013-0.001h0.013c1.951-0.015 3.845-0.528 5.483-1.485 1.467-0.858 2.671-2.034 3.513-3.42l0.094-0.154 0.177-0.032c0.833-0.15 1.647-0.375 2.436-0.677l0.154-0.059 6.629 2.922c0.105 0.046 0.216 0.069 0.325 0.069l-28.172 4.399zM2.137 30.496c-0.105 0.046-0.215 0.068-0.325 0.069l0.325-0.069zM30.872 25.868c-0.154 0.149-0.356 0.228-0.562 0.228l0.562-0.228zM11.361 27.321v0l0.018-0.001 0.022-0.001 0.007-0 0.005-0c0.006-0 0.004-0-0.002-0 2.481 0 4.83-0.968 6.478-2.59l0.652-0.642-0.914-0.043c-3.252-0.153-6.257-1.422-8.527-3.606-1.824-1.756-3.030-3.987-3.456-6.312l-0.136-0.739-0.537 0.524c-1.492 1.456-2.353 3.386-2.353 5.431 0 1.785 0.638 3.473 1.834 4.876v0c0.195 0.229 0.247 0.548 0.134 0.827l-1.281 3.17 3.729-1.644c0.205-0.090 0.437-0.092 0.643-0.004h0c1.159 0.494 2.398 0.747 3.683 0.754z"></path>
<path d="M18.235 13.515c0.667 0 1.208-0.541 1.208-1.208s-0.541-1.208-1.208-1.208c-0.667 0-1.208 0.541-1.208 1.208s0.541 1.208 1.208 1.208z"></path>
<path d="M23.066 13.515c0.667 0 1.208-0.541 1.208-1.208s-0.541-1.208-1.208-1.208c-0.667 0-1.208 0.541-1.208 1.208s0.541 1.208 1.208 1.208z"></path>
<path d="M13.404 13.515c0.667 0 1.208-0.541 1.208-1.208s-0.541-1.208-1.208-1.208c-0.667 0-1.208 0.541-1.208 1.208s0.541 1.208 1.208 1.208z"></path>
</symbol>
<symbol id="circle" viewBox="0 0 32 32">
<path stroke-linejoin="miter" stroke-linecap="butt" stroke-miterlimit="4" stroke-width="6.4" d="M16 3.2c7.069 0 12.8 5.731 12.8 12.8s-5.731 12.8-12.8 12.8c-7.069 0-12.8-5.731-12.8-12.8s5.731-12.8 12.8-12.8z"></path>
</symbol>
<symbol id="cross" viewBox="0 0 32 32">
<path d="M6.786 2.127l22.684 22.684c1.174 1.175 1.174 3.079 0 4.253v0c-1.174 1.175-3.079 1.175-4.253 0l-22.684-22.684c-1.175-1.175-1.175-3.079 0-4.253v0c1.175-1.175 3.079-1.175 4.253 0z"></path>
<path d="M2.531 24.811l22.684-22.684c1.174-1.175 3.079-1.175 4.253 0v0c1.174 1.175 1.174 3.079 0 4.253l-22.684 22.684c-1.175 1.175-3.079 1.175-4.253 0v0c-1.175-1.175-1.175-3.079 0-4.253z"></path>
</symbol>
<symbol id="cross-alt" viewBox="0 0 32 32">
<path stroke-linejoin="miter" stroke-linecap="round" stroke-miterlimit="4" stroke-width="3.84" d="M2.56 29.713l27.153-27.153"></path>
<path stroke-linejoin="miter" stroke-linecap="round" stroke-miterlimit="4" stroke-width="3.84" d="M29.712 29.713l-27.153-27.153"></path>
</symbol>
<symbol id="delivery" viewBox="0 0 32 32">
<path d="M30.231 15.736v0l1.618 2.476c0.049 0.074 0.075 0.162 0.075 0.251v5.649c0 0.254-0.205 0.459-0.459 0.459h-1.749l-0.009 0.038c-0.284 1.22-1.378 2.133-2.683 2.133s-2.399-0.913-2.683-2.133l-0.009-0.038h-9.841l-0.009 0.038c-0.284 1.22-1.378 2.133-2.683 2.133s-2.4-0.913-2.683-2.133l-0.009-0.038h-4.54c-0.253 0-0.459-0.205-0.459-0.459v-0.501c0-1.019 0.616-1.895 1.494-2.282l0.029-0.013v-2.328h-5.123c-0.254 0-0.459-0.205-0.459-0.459s0.205-0.459 0.459-0.459h5.123v-1.112h-2.079c-0.253 0-0.459-0.205-0.459-0.459s0.205-0.459 0.459-0.459h2.079v-1.112h-5.123c-0.254 0-0.459-0.205-0.459-0.459s0.205-0.459 0.459-0.459h4.351l-0.133-0.089c-1.324-0.884-2.198-2.391-2.198-4.098 0-2.716 2.21-4.926 4.926-4.926 2.399 0 4.4 1.725 4.836 3.999l0.008 0.039h7.875c1.444 0 2.618 1.174 2.618 2.618v2.457h4.234c1.304 0 2.502 0.645 3.208 1.726zM6.597 18.988h-0.048v2.127h0.048c0.004 0 0.007-0 0.009-0.001h15.265v-9.562c0-0.937-0.762-1.7-1.7-1.7h-7.796l-0.001 0.048c-0.026 1.675-0.891 3.15-2.195 4.020l-0.133 0.089h3.148c0.253 0 0.459 0.205 0.459 0.459s-0.206 0.459-0.459 0.459h-6.646v1.112h3.601c0.253 0 0.459 0.205 0.459 0.459s-0.205 0.459-0.459 0.459h-3.601v1.112h1.063c0.254 0 0.459 0.205 0.459 0.459s-0.205 0.459-0.459 0.459h-1.015zM21.822 23.652h0.049v-1.619h-8.127l0.075 0.081c0.376 0.406 0.63 0.923 0.709 1.496l0.006 0.042h7.289zM9.779 22.114l0.075-0.081h-3.251c-0.867 0-1.574 0.704-1.577 1.571l-0 0.049h4.039l0.006-0.042c0.078-0.573 0.333-1.091 0.709-1.496zM30.957 23.652h0.049v-5.053l-0.008-0.012-1.535-2.35c-0.536-0.82-1.448-1.309-2.44-1.309h-4.234v8.724h1.501l0.006-0.042c0.184-1.343 1.336-2.383 2.729-2.383s2.545 1.040 2.729 2.383l0.006 0.042h1.199zM7.453 5.815c-2.21 0-4.008 1.798-4.008 4.008s1.798 4.008 4.008 4.008c2.21 0 4.008-1.798 4.008-4.008s-1.798-4.008-4.008-4.008zM9.96 23.985c0 1.014 0.825 1.839 1.839 1.839s1.839-0.825 1.839-1.839c0-1.014-0.825-1.839-1.839-1.839s-1.839 0.825-1.839 1.839zM25.185 23.985c0 1.014 0.825 1.839 1.839 1.839s1.839-0.825 1.839-1.839c0-1.014-0.825-1.839-1.839-1.839s-1.839 0.825-1.839 1.839z"></path>
<path d="M7.144 9.686l0.009-0.013v-2.071c0-0.254 0.205-0.459 0.459-0.459s0.459 0.205 0.459 0.459v2.22c0 0.097-0.031 0.192-0.088 0.27l-1.133 1.554c-0.090 0.123-0.229 0.189-0.371 0.189-0.094 0-0.188-0.029-0.27-0.089l-0-0c-0.205-0.149-0.25-0.436-0.1-0.641v-0l1.036-1.421z"></path>
<path d="M30.021 18.757l0 0c0.149 0.259 0.148 0.57-0.002 0.83s-0.42 0.416-0.721 0.416h-3.416c-0.254 0-0.459-0.205-0.459-0.459v-3.552c0-0.254 0.205-0.459 0.459-0.459h0.971c0.818 0 1.578 0.441 1.983 1.151l1.185 2.074zM26.341 19.037v0.049h2.81l-1.112-1.946c-0.242-0.425-0.697-0.688-1.186-0.688h-0.512v2.586z"></path>
</symbol>
<symbol id="eco" viewBox="0 0 32 32">
<path d="M7.231 26.4l0.392 0.070c0.096 0.017 1.067 0.185 2.404 0.185 2 0 4.817-0.376 6.742-2.192 3.212-3.031 2.564-8.771 2.535-9.014l-0.047-0.396-0.392-0.070c-0.241-0.043-5.934-1.023-9.146 2.007s-2.564 8.771-2.535 9.014l0.047 0.395zM16.030 23.68c-2.043 1.928-5.422 1.974-7.14 1.85l4.824-4.551 3.586 0.93c-0.317 0.653-0.73 1.262-1.269 1.771zM17.705 20.902l-3.067-0.796 3.654-3.447c0.014 1.041-0.069 2.682-0.586 4.243zM17.508 15.918l-6.032 5.691-0.799-4.030c2.022-1.705 5.149-1.773 6.831-1.662zM9.773 18.56l0.778 3.922-2.356 2.223c-0.012-1.526 0.191-4.223 1.578-6.145z"></path>
<path d="M24.696 5.206c0-1.39-0.542-2.698-1.525-3.681s-2.29-1.525-3.681-1.525c-0.433 0-0.864 0.054-1.28 0.159l0.266 1.044c0.329-0.084 0.671-0.126 1.015-0.126 1.103 0 2.14 0.429 2.919 1.209s1.209 1.817 1.209 2.919v4.105h-5.17v-4.105c0-2.87-2.335-5.206-5.206-5.206s-5.206 2.335-5.206 5.206v4.105h-4.99v19.997c0 1.485 1.208 2.693 2.693 2.693h20.033c1.485 0 2.693-1.208 2.693-2.693v-19.997h-3.77v-4.105zM9.115 5.206c0-2.277 1.852-4.129 4.129-4.129s4.129 1.852 4.129 4.129v4.105h-2.010v-4.105c0-0.507 0.091-1.001 0.27-1.468l-1.006-0.385c-0.226 0.59-0.341 1.214-0.341 1.853v4.105h-5.17v-4.105zM22.362 29.307c0 0.891-0.725 1.616-1.616 1.616h-15.007c-0.891 0-1.616-0.725-1.616-1.616v-18.92h18.238v18.92zM25.773 30.923h-1.942l1.583-2.759 1.376 2.398c-0.278 0.226-0.632 0.361-1.017 0.361zM24.875 10.388v3.052h1.077v-3.052h1.436v18.92c0 0.042-0.002 0.083-0.005 0.124l-1.431-2.493v-12.063h-1.077v12.063l-1.44 2.509c0.002-0.046 0.004-0.093 0.004-0.14v-18.92h1.436z"></path>
</symbol>
<symbol id="facebook" viewBox="0 0 32 32">
<path d="M17.806 27.632v-10.597h3.575l0.531-4.149h-4.106v-2.643c0-1.197 0.334-2.017 2.052-2.017h2.177v-3.699c-1.059-0.114-2.124-0.168-3.19-0.164-3.16 0-5.329 1.929-5.329 5.47v3.045h-3.552v4.149h3.559v10.605h4.282z"></path>
</symbol>
<symbol id="fish" viewBox="0 0 32 32">
<path d="M24.35 12.308c-0.481-0-0.857 0.397-0.874 0.873-0.017 0.465 0.33 0.874 0.811 0.874 0.46 0 0.856-0.385 0.874-0.873s-0.352-0.874-0.811-0.874z"></path>
<path d="M6.432 9.348c-0.437-0-0.778 0.363-0.793 0.782s0.3 0.783 0.737 0.783c0.415 0 0.767-0.351 0.782-0.782s-0.311-0.783-0.726-0.783z"></path>
<path stroke-linejoin="miter" stroke-linecap="butt" stroke-miterlimit="4" stroke-width="0.384" d="M30.012 18.598l0 0.002c0.019 0.156-0.019 0.327-0.115 0.486-0.121 0.194-0.265 0.254-0.567 0.379l-0.012 0.005h-0l-0.003 0.001c-3.521 1.537-7.911 1.194-11.618 0.422-3.452-0.728-6.11-1.797-6.475-1.944-0.015-0.006-0.026-0.011-0.033-0.013-1.052-0.426-2.079-0.555-3.070-0.378s-1.932 0.658-2.813 1.431c-0.972 0.848-1.622 1.843-1.94 2.371l-0.058 0.096 0.052 0.095c1.085 1.979 2.701 3.043 4.817 3.126h0.001c0.871 0.030 1.669-0.113 2.25-0.263 0.291-0.075 0.529-0.153 0.695-0.213 0.083-0.030 0.149-0.056 0.195-0.074 0.023-0.009 0.042-0.017 0.055-0.023l0.019-0.009c0.002-0.001 0.004-0.002 0.007-0.004 0.374-0.164 0.804 0.070 0.866 0.499l0 0c0.313 2.118-0.001 3.694-0.895 4.742-1.014 1.178-2.418 1.233-2.632 1.232-0.125 0-0.232-0.034-0.334-0.097-0.108-0.069-1.457-0.942-2.914-2.466-1.463-1.53-3.022-3.704-3.555-6.367-0.62-3.099 0.042-6.615 2.444-9.812l0-0c0.247-0.33 0.708-0.358 0.977-0.068 0.221 0.239 0.236 0.612 0.027 0.889l-0 0.001c-1.752 2.35-2.27 4.646-2.342 6.346l-0.023 0.553 0.361-0.431c1.236-1.476 2.615-2.381 4.031-2.772s2.883-0.27 4.303 0.329c0.060 0.025 2.801 1.155 6.336 1.886l0.352 0.073-0.127-0.334c-1.524-4.007-1.178-7.973 2.164-10.63l0.296-0.235-0.355-0.098c-1.542-0.428-3.214-0.531-4.844-0.407-1.363 0.102-2.959 0.399-4.26 0.918l-0.001 0c-0.549 0.222-1.075 0.512-1.699 0.925v0l-0.001 0.001c-0.022 0.015-0.042 0.027-0.067 0.042-0.008 0.005-0.017 0.010-0.026 0.016-0.032 0.020-0.069 0.043-0.106 0.072-0.254 0.176-0.592 0.144-0.803-0.084v0l-0.002-0.002c-0.287-0.3-0.218-0.807 0.131-1.046 0-0 0-0 0-0l0.2-0.135c0-0 0-0 0.001-0 1.191-0.791 2.214-1.268 3.9-1.647l0.248-0.056-0.111-0.222c-0.469-0.936-1.304-1.999-3.33-2.48v-0l-0.005-0.001c-0.625-0.131-0.685-1.070-0.025-1.31 2.778-0.983 5.55-1.003 7.794 0.705l0 0c1.267 0.963 2.014 2.238 2.413 3.108l0.039 0.085 0.092 0.019c6.185 1.253 9.361 6.201 10.093 12.764zM17.871 18.322c0.015 0.040 0.030 0.081 0.045 0.121l0.18-0.073 0.045-0.188c-0.042-0.009-0.083-0.017-0.125-0.026-1.421-3.905-1.081-7.808 2.122-10.488 0.043 0.011 0.085 0.023 0.127 0.034l0.057-0.185-0.116-0.149c-0.037 0.029-0.073 0.059-0.11 0.088-1.454-0.37-3.019-0.458-4.553-0.34l2.326 11.205zM9.68 8.927c0.617-0.408 1.13-0.691 1.663-0.906l-1.663 0.906zM14.331 5.574l0.055 0.129 0.141-0.019c0.914-0.123 2.063-0.2 3.315-0.121l0.399 0.025-0.219-0.327c-0.928-1.387-2.63-2.88-5.539-2.636l-0.522 0.044 0.414 0.304c1.123 0.823 1.638 1.853 1.956 2.602zM11.092 25.87l-0.008-0.235-0.229 0.064c-1.758 0.489-3.616 0.495-5.249-0.211l-0.235 0.297c1.375 1.779 2.968 2.983 3.532 3.375l0.061 0.042 0.075-0.011c0.318-0.048 0.937-0.207 1.406-0.76l0.001-0.001c0.48-0.576 0.686-1.463 0.647-2.56zM19.934 18.81l0.042 0.088 0.097 0.014c2.678 0.389 5.823 0.465 8.446-0.562l0.148-0.058-0.023-0.154c-0.637-4.364-2.471-8.178-6.311-10.066l-0.093-0.046-0.092 0.055c-1.611 0.972-2.677 2.233-3.152 3.774-0.828 2.672 0.262 5.555 0.936 6.956z"></path>
</symbol>
<symbol id="instagram-alt" viewBox="0 0 32 32">
<path d="M27.568 11.222c-0.013-0.979-0.196-1.949-0.542-2.865-0.299-0.773-0.757-1.475-1.343-2.061s-1.288-1.044-2.061-1.343c-0.905-0.34-1.86-0.523-2.826-0.543-1.244-0.056-1.638-0.071-4.796-0.071s-3.562 0-4.797 0.071c-0.966 0.020-1.921 0.204-2.825 0.543-0.773 0.299-1.475 0.757-2.061 1.343s-1.044 1.288-1.343 2.061c-0.34 0.904-0.523 1.859-0.542 2.825-0.056 1.245-0.072 1.639-0.072 4.797s0 3.561 0.072 4.797c0.019 0.967 0.202 1.921 0.542 2.828 0.3 0.773 0.758 1.475 1.344 2.061s1.289 1.043 2.062 1.342c0.902 0.353 1.857 0.55 2.825 0.582 1.245 0.056 1.639 0.072 4.797 0.072s3.562 0 4.797-0.072c0.966-0.019 1.922-0.202 2.826-0.542 0.773-0.3 1.475-0.758 2.061-1.344s1.044-1.288 1.344-2.061c0.34-0.905 0.522-1.859 0.542-2.828 0.056-1.244 0.072-1.638 0.072-4.797-0.002-3.157-0.002-3.558-0.075-4.795zM15.992 21.95c-3.302 0-5.977-2.675-5.977-5.977s2.675-5.977 5.977-5.977c1.585 0 3.106 0.63 4.226 1.751s1.751 2.641 1.751 4.226c0 1.585-0.63 3.106-1.751 4.227s-2.641 1.751-4.226 1.751zM22.208 11.168c-0.183 0-0.364-0.036-0.534-0.106s-0.323-0.173-0.452-0.302c-0.129-0.129-0.232-0.283-0.302-0.452s-0.106-0.351-0.106-0.534c0-0.183 0.036-0.364 0.106-0.533s0.173-0.323 0.302-0.452c0.129-0.129 0.283-0.232 0.452-0.302s0.35-0.106 0.533-0.106c0.183 0 0.364 0.036 0.533 0.106s0.323 0.173 0.452 0.302c0.129 0.129 0.232 0.283 0.302 0.452s0.106 0.35 0.106 0.533c0 0.771-0.623 1.394-1.392 1.394z"></path>
<path d="M15.992 19.855c2.144 0 3.883-1.738 3.883-3.883s-1.738-3.883-3.883-3.883c-2.144 0-3.883 1.738-3.883 3.883s1.738 3.883 3.883 3.883z"></path>
</symbol>
<symbol id="meat" viewBox="0 0 32 32">
<path d="M28.447 14.452l-0.029-0.164-0.066 0.152c-0.195 0.449-0.443 0.877-0.74 1.275-0.161 0.216-0.466 0.26-0.682 0.099h-0c-0.215-0.161-0.26-0.466-0.099-0.682 0.893-1.195 1.258-2.716 1.001-4.174-0.235-1.339-1.012-2.403-2.314-3.186-1.3-0.782-3.125-1.284-5.461-1.504-4.318-0.407-9.009 0.292-10.824 0.612-4.256 0.748-7.11 4.82-6.362 9.076s4.82 7.11 9.076 6.362c2.017-0.355 3.481-1.291 5.021-2.277l0.003-0.002c1.779-1.139 3.613-2.311 6.467-2.813 0.166-0.029 0.332-0.066 0.494-0.111v0c0.259-0.071 0.527 0.082 0.599 0.341s-0.082 0.527-0.341 0.599c-0.191 0.052-0.387 0.096-0.583 0.131-2.663 0.468-4.419 1.592-6.109 2.673l-0.002 0.001c-1.635 1.047-3.172 2.029-5.38 2.418-3.276 0.576-6.454-0.746-8.404-3.173l-0.088 0.043c0.965 3.981 4.883 6.588 8.973 5.868 2.017-0.355 3.481-1.291 5.021-2.277l0.003-0.002c1.779-1.139 3.613-2.311 6.467-2.813 2.939-0.517 4.91-3.329 4.393-6.268l-0.036-0.205zM20.15 5.3c2.305 0.217 4.183 0.715 5.583 1.478 1.731 0.943 2.758 2.293 3.060 4.013l0.65 3.698c0.61 3.468-1.716 6.786-5.184 7.396-2.663 0.468-4.419 1.592-6.109 2.673l-0.002 0.001c-1.635 1.046-3.172 2.029-5.38 2.418-4.785 0.841-9.363-2.367-10.204-7.152l-0.65-3.698c-0.841-4.785 2.367-9.363 7.152-10.204 1.856-0.326 6.65-1.040 11.084-0.622z"></path>
<path d="M25.806 16.18v0 0zM25.806 16.18l0-0M25.806 16.18l0-0M25.807 16.18c0.22-0.155 0.524-0.102 0.679 0.118 0.154 0.218 0.103 0.518-0.112 0.674l-0 0M25.807 16.18l0.567 0.792M26.373 16.972c-0.062 0.046-0.131 0.074-0.203 0.087-0.176 0.031-0.363-0.037-0.476-0.19l0.679 0.103z"></path>
<path d="M8.101 12.898c-0.23-1.309 0.757-2.59 2.214-2.846s2.821 0.61 3.051 1.92c0.23 1.309-0.757 2.59-2.214 2.846s-2.821-0.61-3.051-1.92zM9.060 12.729c0.139 0.792 1.009 1.29 1.923 1.129s1.562-0.925 1.423-1.717c-0.139-0.792-1.009-1.29-1.923-1.129s-1.562 0.925-1.423 1.717z"></path>
</symbol>
<symbol id="menu" viewBox="0 0 32 32">
<path d="M2.526 3.2h26.947c1.395 0 2.526 1.131 2.526 2.526v0c0 1.395-1.131 2.526-2.526 2.526h-26.947c-1.395 0-2.526-1.131-2.526-2.526v0c0-1.395 1.131-2.526 2.526-2.526z"></path>
<path d="M8.96 13.44h20.48c1.414 0 2.56 1.146 2.56 2.56s-1.146 2.56-2.56 2.56h-20.48c-1.414 0-2.56-1.146-2.56-2.56s1.146-2.56 2.56-2.56z"></path>
<path d="M2.526 23.411h26.947c1.395 0 2.526 1.131 2.526 2.526v0c0 1.395-1.131 2.526-2.526 2.526h-26.947c-1.395 0-2.526-1.131-2.526-2.526v0c0-1.395 1.131-2.526 2.526-2.526z"></path>
</symbol>
<symbol id="night" viewBox="0 0 32 32">
<path d="M12.092 13.158c-0.001 0.794 0.093 1.585 0.278 2.357M12.092 13.158v0c0 0 0 0 0 0zM12.092 13.158c0-5.432 4.328-9.852 9.649-9.852 0.942 0 2.038 0.041 2.992 0.347l-0.012 0.036-12.351 11.826M12.37 15.515c-0.618-0.218-1.268-0.329-1.923-0.329-3.193 0-5.791 2.565-5.791 5.72v0c0 0.419 0.048 0.836 0.142 1.244-1.015 0.173-1.95 0.66-2.673 1.394-0.896 0.9-1.398 2.119-1.396 3.388 0 0 0 0 0 0l0.038-0M12.37 15.515l12.748 6.846c0.012 0.009 0.023 0.018 0.035 0.027-0.014 0.005-0.028 0.011-0.042 0.016 0.615 0.483 1.114 1.098 1.459 1.799 0.352 0.715 0.536 1.501 0.537 2.298 0 2.895-2.385 5.251-5.316 5.251h-16.145c-2.691 0-4.88-2.163-4.88-4.821M0.767 26.931c-0.002-1.26 0.497-2.469 1.385-3.362l-1.385 3.362zM16.992 18.237v-0.038c0 0 0 0 0 0 1.946 0 3.659 1.251 4.256 3.040 0.896-0.091 1.801 0.044 2.632 0.392 2.234-0.577 4.101-2.064 5.211-4.106-0.707 0.24-1.473 0.355-2.334 0.355-3.938 0-7.14-3.27-7.14-7.287 0-2.447 1.282-4.782 3.256-6.145l-7.226 13.956M16.992 18.237c-0.463-0-0.923 0.072-1.363 0.214M16.992 18.237c1.94 0 3.646 1.254 4.23 3.043l-4.23-3.043zM15.629 18.451l0.034-0.017c-0.005-0.010-0.010-0.020-0.014-0.029M15.629 18.451l-0.012-0.036c0.010-0.003 0.021-0.007 0.031-0.010M15.629 18.451c-0.438-0.895-1.102-1.66-1.926-2.219M15.649 18.405c-0.439-0.884-1.098-1.641-1.914-2.197M13.703 16.232l0.036-0.013c-0.001-0.004-0.003-0.008-0.004-0.012M13.703 16.232c-0.359-0.985-0.542-2.025-0.54-3.074l0.572 3.049M13.703 16.232l0.021-0.031c0.003 0.002 0.007 0.005 0.010 0.007M1.838 26.931v-0c-0.001-0.978 0.386-1.916 1.076-2.609l0-0c0.694-0.703 1.633-1.109 2.619-1.135h0c0.088-0.003 0.173-0.026 0.25-0.068s0.143-0.102 0.192-0.174c0.049-0.072 0.081-0.155 0.092-0.242s0.001-0.175-0.028-0.258l-0-0c-0.18-0.494-0.272-1.015-0.274-1.54 0-2.542 2.1-4.61 4.681-4.61 1.946 0 3.708 1.211 4.386 3.011 0.027 0.071 0.068 0.136 0.121 0.191s0.116 0.098 0.187 0.127 0.146 0.043 0.222 0.042c0.076-0.001 0.151-0.018 0.22-0.050l0-0c0.443-0.203 0.924-0.308 1.411-0.308 1.602 0 2.992 1.12 3.306 2.663 0.029 0.144 0.114 0.27 0.236 0.351s0.271 0.111 0.415 0.082v0c0.277-0.055 0.56-0.083 0.843-0.083 2.341 0 4.245 1.876 4.245 4.18s-1.904 4.18-4.245 4.18h-16.145c-2.101 0-3.809-1.683-3.809-3.75z"></path>
<path d="M27.054 11.916l0.571-0.857 0.572 0.858c0.082 0.122 0.209 0.206 0.352 0.234s0.293-0.001 0.415-0.083c0.122-0.081 0.207-0.208 0.236-0.351s0-0.293-0.080-0.415l-0-0-0.63-0.945 0.861-0.287c0.138-0.048 0.252-0.148 0.317-0.279s0.075-0.282 0.029-0.421c-0.046-0.139-0.145-0.253-0.276-0.319s-0.282-0.078-0.421-0.033l-0 0-0.82 0.273v-0.78c0-0.147-0.058-0.288-0.162-0.392s-0.245-0.162-0.392-0.162c-0.147 0-0.288 0.058-0.392 0.162s-0.162 0.245-0.162 0.392v0.78l-0.819-0.273c0 0-0-0-0-0-0.069-0.024-0.143-0.034-0.216-0.029s-0.145 0.024-0.21 0.056c-0.066 0.032-0.124 0.078-0.172 0.133s-0.085 0.12-0.108 0.189c-0.023 0.070-0.032 0.143-0.027 0.216s0.025 0.144 0.058 0.21c0.033 0.065 0.079 0.124 0.135 0.171s0.12 0.084 0.19 0.106c0 0 0 0 0 0l0.86 0.287-0.63 0.945c0 0 0 0-0 0-0.041 0.061-0.069 0.129-0.084 0.2s-0.015 0.145-0.001 0.217c0.014 0.072 0.042 0.14 0.083 0.201s0.093 0.113 0.154 0.153c0.061 0.041 0.129 0.069 0.201 0.083s0.146 0.014 0.217-0.001c0.072-0.014 0.14-0.043 0.2-0.084s0.112-0.093 0.153-0.154c0-0 0-0 0-0z"></path>
<path d="M4.327 15.949l-0.63-0.945 0.861-0.287c0.138-0.048 0.252-0.148 0.317-0.279s0.075-0.282 0.029-0.421c-0.046-0.139-0.145-0.253-0.276-0.319s-0.282-0.078-0.421-0.033l-0 0-0.82 0.273v-0.78c0-0.147-0.058-0.288-0.162-0.392s-0.245-0.162-0.392-0.162c-0.147 0-0.288 0.058-0.392 0.162s-0.162 0.245-0.162 0.392v0.78l-0.819-0.273c-0 0-0 0-0-0-0.069-0.024-0.143-0.034-0.216-0.029s-0.145 0.024-0.21 0.056-0.124 0.078-0.172 0.133c-0.048 0.055-0.085 0.119-0.108 0.189s-0.032 0.143-0.027 0.216 0.025 0.144 0.058 0.21c0.033 0.065 0.079 0.124 0.135 0.171s0.12 0.084 0.19 0.106c0 0 0 0 0 0l0.86 0.287-0.63 0.945c0 0-0 0-0 0-0.041 0.061-0.069 0.129-0.084 0.2s-0.015 0.145-0.001 0.217c0.014 0.072 0.042 0.14 0.083 0.201s0.093 0.113 0.154 0.154c0.061 0.041 0.129 0.069 0.201 0.083s0.145 0.014 0.217-0.001c0.072-0.014 0.14-0.043 0.2-0.084s0.112-0.093 0.153-0.154c0 0 0-0 0-0l0.571-0.857 0.571 0.857c0 0 0 0 0 0 0.040 0.061 0.092 0.113 0.153 0.154s0.129 0.070 0.2 0.084c0.072 0.015 0.145 0.015 0.217 0.001s0.14-0.042 0.201-0.083c0.061-0.041 0.113-0.093 0.154-0.153s0.069-0.129 0.083-0.201c0.014-0.072 0.014-0.145-0-0.217s-0.043-0.14-0.084-0.2c-0 0-0-0-0-0z"></path>
<path d="M5.36 5.718v0l0.572-0.857 0.572 0.858c0.082 0.122 0.209 0.206 0.353 0.234s0.293-0.001 0.415-0.083c0.122-0.081 0.207-0.208 0.236-0.351s0-0.293-0.080-0.415l-0-0-0.63-0.945 0.861-0.287c0.138-0.048 0.252-0.148 0.317-0.279s0.075-0.282 0.029-0.421c-0.046-0.139-0.145-0.253-0.276-0.319s-0.282-0.078-0.421-0.033l-0 0-0.82 0.273v-0.78c0-0.147-0.058-0.288-0.162-0.392s-0.245-0.162-0.392-0.162c-0.147 0-0.288 0.058-0.392 0.162s-0.162 0.245-0.162 0.392v0.78l-0.82-0.273c-0.139-0.045-0.29-0.033-0.421 0.033s-0.229 0.181-0.276 0.319c-0.046 0.139-0.036 0.29 0.029 0.421s0.179 0.231 0.317 0.279l0 0 0.861 0.287-0.63 0.945c0 0 0 0 0 0-0.082 0.122-0.111 0.272-0.082 0.416s0.114 0.271 0.236 0.353v0c0.122 0.082 0.272 0.111 0.416 0.082s0.271-0.114 0.353-0.236z"></path>
<path d="M30.207 3.899c0.306 0 0.555-0.248 0.555-0.555s-0.248-0.555-0.555-0.555c-0.306 0-0.555 0.248-0.555 0.555s0.248 0.555 0.555 0.555z"></path>
<path d="M9.031 11.647c0.306 0 0.555-0.248 0.555-0.555s-0.248-0.555-0.555-0.555c-0.306 0-0.555 0.248-0.555 0.555s0.248 0.555 0.555 0.555z"></path>
<path d="M16.778 1.833c0.306 0 0.555-0.248 0.555-0.555s-0.248-0.555-0.555-0.555c-0.306 0-0.555 0.248-0.555 0.555s0.248 0.555 0.555 0.555z"></path>
<path d="M31.24 21.977c0.306 0 0.555-0.248 0.555-0.555s-0.248-0.555-0.555-0.555-0.555 0.248-0.555 0.555c0 0.306 0.248 0.555 0.555 0.555z"></path>
</symbol>
<symbol id="phone" viewBox="0 0 32 32">
<path d="M23.438 13.024c-1.995 5.96-7.494 10.094-9.994 11.417l-2.556-4.171-8.832 3.784 1.686 7.782c21.654-1.99 26.283-21.208 25.89-30.569l-7.041-1.116-2.823 9.782 3.67 3.090z"></path>
</symbol>
<symbol id="ram-dish" viewBox="0 0 32 32">
<path d="M28.813 21.734l-7.207 4.27-2.745-1.735h3.451c0.528 0 1.035-0.21 1.408-0.583s0.583-0.88 0.583-1.409c0-0.528-0.21-1.035-0.583-1.408s-0.88-0.583-1.408-0.583h-5.928c-0.682-0.004-1.358 0.119-1.995 0.362l-4.61 2.093v-0.464c0-0.144-0.057-0.282-0.159-0.384s-0.24-0.159-0.384-0.159h-3.984c-0.144 0-0.282 0.057-0.384 0.159s-0.159 0.24-0.159 0.384v9.054c0 0.144 0.057 0.282 0.159 0.384s0.24 0.159 0.384 0.159h3.984c0.144 0 0.282-0.057 0.384-0.159s0.159-0.24 0.159-0.384v-0.543h11.259c0.713 0.001 1.407-0.223 1.985-0.641l7.7-5.516c0.322-0.277 0.532-0.663 0.59-1.084s-0.038-0.849-0.272-1.204c-0.234-0.355-0.589-0.613-0.999-0.725s-0.847-0.072-1.229 0.115zM8.692 30.788h-2.897v-7.967h2.897v7.967zM30.092 23.766l-7.703 5.501c-0.393 0.284-0.866 0.436-1.351 0.435h-11.259v-5.769l5.027-2.271c0.504-0.193 1.039-0.291 1.579-0.29h5.928c0.24 0 0.47 0.095 0.64 0.265s0.265 0.4 0.265 0.64c0 0.24-0.095 0.47-0.265 0.64s-0.4 0.265-0.64 0.265h-5.327c-0.118-0-0.233 0.038-0.327 0.109s-0.163 0.17-0.196 0.284c-0.033 0.113-0.028 0.234 0.014 0.344s0.119 0.204 0.219 0.266l4.61 2.897c0.086 0.053 0.184 0.080 0.284 0.080s0.199-0.028 0.284-0.080l7.497-4.451c0.147-0.086 0.321-0.112 0.487-0.073s0.31 0.14 0.403 0.283c0.093 0.142 0.128 0.315 0.097 0.483s-0.125 0.316-0.262 0.416l-0.004 0.025z"></path>
<path d="M31.327 17.388h-1.268c-0.091-3.329-1.37-6.516-3.605-8.985s-5.278-4.058-8.582-4.48c0.303-0.339 0.501-0.758 0.571-1.207s0.009-0.909-0.177-1.323c-0.186-0.415-0.487-0.767-0.869-1.014s-0.826-0.379-1.28-0.379c-0.454 0-0.899 0.132-1.28 0.379s-0.683 0.599-0.868 1.014c-0.186 0.415-0.247 0.874-0.177 1.323s0.268 0.868 0.571 1.207c-3.304 0.421-6.349 2.009-8.585 4.478s-3.514 5.657-3.605 8.987h-1.63c-0.144 0-0.282 0.057-0.384 0.159s-0.159 0.24-0.159 0.384c0 0.144 0.057 0.282 0.159 0.384s0.24 0.159 0.384 0.159h30.783c0.144 0 0.282-0.057 0.384-0.159s0.159-0.24 0.159-0.384-0.057-0.282-0.159-0.384c-0.102-0.102-0.24-0.159-0.384-0.159zM16.116 1.091c0.251 0 0.496 0.074 0.704 0.214s0.371 0.337 0.467 0.569c0.096 0.232 0.121 0.486 0.072 0.732s-0.17 0.472-0.347 0.649c-0.177 0.177-0.403 0.298-0.649 0.347s-0.501 0.024-0.732-0.072c-0.232-0.096-0.43-0.258-0.569-0.467s-0.214-0.454-0.214-0.704c0-0.336 0.134-0.659 0.371-0.896s0.56-0.371 0.896-0.371zM16.116 4.894c3.347 0.001 6.562 1.307 8.962 3.64s3.797 5.509 3.894 8.855h-25.713c0.097-3.346 1.494-6.522 3.894-8.855s5.615-3.638 8.962-3.64z"></path>
<path d="M13.196 7.469c-1.492 0.423-2.875 1.165-4.050 2.177s-2.117 2.267-2.758 3.679c-0.036 0.066-0.058 0.138-0.065 0.213s0.002 0.15 0.026 0.221c0.024 0.071 0.062 0.136 0.113 0.192s0.112 0.1 0.18 0.131 0.143 0.047 0.218 0.047c0.075 0.001 0.149-0.014 0.218-0.044s0.131-0.073 0.182-0.128c0.051-0.055 0.091-0.12 0.116-0.19 0.577-1.267 1.423-2.393 2.48-3.3s2.298-1.573 3.637-1.951c0.069-0.020 0.133-0.052 0.189-0.097s0.103-0.099 0.138-0.162c0.035-0.062 0.057-0.131 0.065-0.202s0.002-0.143-0.017-0.212c-0.020-0.069-0.052-0.133-0.097-0.189s-0.099-0.103-0.162-0.138-0.131-0.057-0.202-0.065c-0.071-0.008-0.143-0.002-0.212 0.017z"></path>
</symbol>
<symbol id="replace" viewBox="0 0 32 32">
<path d="M29.074 7.101h-0.064l0.035 0.054c1.849 2.827 2.734 6.201 2.503 9.604-0.256 3.763-1.867 7.305-4.537 9.975-2.99 2.99-6.976 4.579-11.039 4.579-1.962 0-3.942-0.37-5.837-1.133-0.295-0.119-0.439-0.455-0.32-0.75v0c0.119-0.295 0.455-0.438 0.75-0.32 5.388 2.168 11.524 0.915 15.63-3.192 4.657-4.657 5.519-11.921 2.275-17.501l-0.065-0.111v0.887c0 0.318-0.258 0.576-0.576 0.576s-0.576-0.258-0.576-0.576v-2.669c0-0.318 0.258-0.576 0.576-0.576h2.669c0.318 0 0.576 0.258 0.576 0.576s-0.258 0.577-0.576 0.577h-1.424z"></path>
<path d="M3.23 23.411l0.065 0.108v-0.996c0-0.318 0.258-0.576 0.577-0.576s0.576 0.258 0.576 0.576v2.725c0 0.318-0.258 0.576-0.577 0.576h-2.725c-0.318 0-0.577-0.258-0.577-0.576s0.258-0.576 0.577-0.576h1.517l-0.036-0.054c-1.885-2.844-2.791-6.25-2.557-9.686 0.256-3.762 1.867-7.305 4.537-9.975 2.219-2.219 5.015-3.704 8.086-4.292 2.996-0.575 6.067-0.269 8.881 0.884v0c0.295 0.121 0.436 0.457 0.315 0.752s-0.457 0.436-0.752 0.315v0c-5.411-2.217-11.579-0.977-15.714 3.157-4.695 4.695-5.532 12.041-2.193 17.638z"></path>
<path d="M14.326 13.464c-0.102 0.050-0.18 0.139-0.216 0.247s-0.029 0.226 0.022 0.328l2.020 4.084c0.050 0.102 0.139 0.18 0.247 0.216s0.226 0.029 0.328-0.022c0.102-0.050 0.18-0.139 0.216-0.247s0.029-0.226-0.022-0.328l-2.020-4.084c-0.050-0.102-0.139-0.18-0.247-0.216s-0.226-0.029-0.328 0.022z"></path>
<path d="M18.641 16.893l-2.020-4.084c-0.050-0.102-0.139-0.18-0.247-0.216s-0.226-0.029-0.328 0.022-0.18 0.139-0.216 0.247c-0.037 0.108-0.029 0.226 0.022 0.328l2.020 4.084c0.050 0.102 0.139 0.18 0.247 0.216s0.226 0.029 0.328-0.022c0.102-0.050 0.18-0.139 0.216-0.247s0.029-0.226-0.022-0.328z"></path>
<path d="M24.076 8.415l0 0.002c0.005 0.031 0.006 0.062 0.004 0.094 0.001 0.025-0.001 0.051-0.005 0.076-0 0.019-0.001 0.038-0.004 0.057l-0.001 0.008-0.003 0.008-0.011 0.026c-0 0-0 0-0 0-0.063 0.158-1.525 3.749-4.234 6.268l0.926 1.873c0.37 0.714 0.502 1.527 0.38 2.322l-0 0.002-0.138 0.774c-0.087 0.608 0.016 1.228 0.295 1.774l0 0.001 1.504 3.042c0.050 0.102 0.058 0.22 0.022 0.328s-0.114 0.197-0.216 0.247c-0.102 0.050-0.22 0.058-0.328 0.022s-0.197-0.114-0.247-0.216l-1.504-3.041c-0.366-0.712-0.498-1.522-0.375-2.313l0-0.002 0.138-0.774c0.088-0.611-0.017-1.234-0.299-1.783l-0-0.001-2.408-4.869c-0.050-0.102-0.058-0.22-0.022-0.328s0.114-0.197 0.216-0.247 0.22-0.058 0.328-0.022c0.108 0.036 0.197 0.114 0.247 0.216l1.084 2.191c1.915-1.864 3.169-4.319 3.643-5.329-1.266-0.283-4.772-0.91-7.778-0.060 0.22 0.935 0.367 1.886 0.44 2.844l0 0c0.008 0.114-0.029 0.226-0.103 0.312s-0.18 0.139-0.294 0.148-0.226-0.029-0.312-0.103c-0.086-0.074-0.139-0.18-0.148-0.293-0.134-1.545-0.45-3.068-0.942-4.538l-4.085 12.070c0.908-0.142 2.587-0.586 3.723-1.966l-1.158-2.342c-0.050-0.102-0.058-0.22-0.022-0.328s0.114-0.197 0.216-0.247c0.102-0.050 0.22-0.058 0.328-0.022s0.197 0.114 0.247 0.216l2.409 4.87c0.264 0.558 0.696 1.019 1.235 1.32l0.7 0.36c0.703 0.383 1.267 0.979 1.61 1.702l1.504 3.041c0.050 0.102 0.058 0.22 0.022 0.328s-0.114 0.197-0.216 0.247c-0.102 0.050-0.22 0.058-0.328 0.022s-0.197-0.114-0.247-0.216l-1.505-3.043c-0.265-0.554-0.695-1.012-1.231-1.312l-0.704-0.369c-0.703-0.383-1.267-0.979-1.611-1.702l-0.838-1.693c-0.507 0.535-1.106 0.975-1.769 1.298M24.076 8.415l-11.894 10.886M24.076 8.415c-0.010-0.056-0.035-0.109-0.073-0.152-0.015-0.021-0.032-0.041-0.051-0.059l0-0-0.004-0.003c-0.021-0.017-0.043-0.032-0.066-0.045-0.015-0.012-0.031-0.022-0.048-0.031l-0.006-0.003-0.006-0.002-0.029-0.010 0-0-0.006-0.002c-0.008-0.002-0.022-0.005-0.041-0.010-0.507-0.128-4.876-1.235-8.677-0.17M24.076 8.415l-9.008-0.487M12.212 19.363l-0.030-0.063M12.212 19.363c0-0 0-0 0-0l-0.031-0.063M12.212 19.363c-0.929 0.454-1.941 0.714-2.974 0.765M12.182 19.301c-0.925 0.452-1.933 0.71-2.961 0.758M9.238 20.128l0.013-0.006-0.031-0.062M9.238 20.128l-0.004 0.002-0.018 0.009-0.061-0.006-0.005-0.001-0.067-0.016 0-0.001-0.037-0.014v-0c-0.025-0.011-0.049-0.025-0.072-0.041l-0.014-0.010-0.008-0.016-0.001-0.001M9.238 20.128c-0.002 0-0.003 0-0.005 0-0.003 0-0.006 0-0.009 0l-0.001-0.022-0.002-0.048M9.221 20.059l-0.268-0.027M8.953 20.032c-0.146-0.119-1.004-0.857-1.682-2.043-0.701-1.227-1.21-2.94-0.532-4.944 0.785-2.327 2.649-4.262 4.066-5.472 0.907-0.78 1.88-1.48 2.909-2.091l0.005-0.003 0 0 0.093-0.046 0.005-0.002c0.029-0.009 0.060-0.016 0.090-0.019l0.001-0.001 0.014-0.007 0.016-0c0.035-0 0.071 0.004 0.105 0.012l0.003 0.001v0c0.037 0.011 0.073 0.026 0.106 0.047l0.017 0.010 0.007 0.014c0.027 0.019 0.051 0.041 0.073 0.066l0.004 0.004 0.003 0.005-5.304 14.468zM15.069 7.928c-0.206-0.768-0.46-1.522-0.76-2.259l0-0-0.002-0.005-0-0.001-0-0.001-0.001-0.001-0-0.001-0.001-0.001-0.001-0.002-0-0.001-0.001-0.001-0-0.001-0-0.001-0-0.001-0-0.001-0.001-0.001-0-0.001-0.001-0.001-0.001-0.001-0-0.001-0-0.001-0-0.001-0-0.001-0-0.001-0-0.001-0-0.001-0.001-0.001-0-0.001-0-0.001-0-0.001-0-0.001-0-0.001-0-0.001-0-0.001-0-0.001-0-0.001-0.001-0.001-0-0.001-0.001-0.001-0-0.001-0.001-0.001-0-0.001-0-0.001-0-0.001-0.001-0.001-0-0.001-0-0.001-0-0.001-0-0.001-0-0.001-0-0 0.78 2.3zM13.949 17.999c0.017-0.018 0.034-0.036 0.051-0.055l0.033 0.067-0.084-0.012zM8.764 10.988c1.336-1.886 3.206-3.341 4.35-4.13l-2.596 7.676-1.754-3.546zM9.033 18.93c-0.838-0.857-2.409-2.922-1.493-5.631 0.177-0.514 0.404-1.009 0.678-1.478l1.912 3.866-1.097 3.243z"></path>
</symbol>
<symbol id="table" viewBox="0 0 32 32">
<path d="M30.59 9.435l-23.031-0.116c-0.244-0.001-0.443 0.242-0.445 0.544s0.195 0.547 0.439 0.549l22.942 0.116-0.011 2.1-28.416-0.144 0.011-2.1 3.705 0.019c0.244 0.001 0.443-0.242 0.445-0.544s-0.195-0.547-0.439-0.549l-3.793-0.019c-0.439-0.002-0.798 0.437-0.801 0.979l-0.012 2.318c-0.003 0.542 0.352 0.985 0.791 0.987l0.624 0.003-0.041 8.205c-0.003 0.542 0.352 0.985 0.791 0.988l1.518 0.008c0.439 0.002 0.798-0.437 0.801-0.979 0 0 0.021-4.082 0.027-5.375s0.006-1.093 0.006-1.093c0.006-1.093 0.009-1.737 0.009-1.737l20.937 0.106c0 0-0.005 0.968-0.009 1.737s-0.004 0.769-0.006 1.093-0.028 5.484-0.028 5.484c-0.003 0.542 0.352 0.985 0.791 0.988l1.518 0.008c0.439 0.002 0.798-0.437 0.801-0.979l0.042-8.314 0.813 0.004c0.439 0.002 0.798-0.437 0.801-0.979l0.012-2.318c0.003-0.542-0.352-0.985-0.791-0.988zM4.784 21.686l-1.341-0.007 0.041-8.096 1.341 0.007-0.041 8.096zM28.829 21.917l-1.341-0.007 0.041-8.205 1.341 0.007-0.041 8.205z"></path>
</symbol>
<symbol id="telegram" viewBox="0 0 32 32">
<path d="M29.497 6.461l-4.097 19.321c-0.309 1.363-1.115 1.703-2.26 1.061l-6.243-4.6-3.012 2.897c-0.334 0.334-0.612 0.612-1.255 0.612l0.449-6.357 11.569-10.454c0.503-0.448-0.11-0.697-0.782-0.248l-14.303 9.007-6.158-1.928c-1.339-0.418-1.363-1.339 0.279-1.982l24.084-9.279c1.115-0.418 2.091 0.248 1.727 1.952v-0.001z"></path>
</symbol>
<symbol id="time" viewBox="0 0 32 32">
<path stroke-linejoin="miter" stroke-linecap="butt" stroke-miterlimit="4" stroke-width="0.3556" d="M16 31.822c-8.725 0-15.822-7.098-15.822-15.822s7.098-15.822 15.822-15.822c8.725 0 15.822 7.098 15.822 15.822s-7.098 15.822-15.822 15.822zM16 1.822c-7.818 0-14.178 6.36-14.178 14.178s6.36 14.178 14.178 14.178c7.818 0 14.178-6.36 14.178-14.178s-6.36-14.178-14.178-14.178z"></path>
<path stroke-linejoin="miter" stroke-linecap="butt" stroke-miterlimit="4" stroke-width="0.3556" d="M22.419 24.248l-0-0-7-7c-0.155-0.155-0.241-0.364-0.241-0.581v-9.333c0-0.454 0.368-0.822 0.822-0.822s0.822 0.368 0.822 0.822v8.992l0.052 0.052 6.707 6.707c0.321 0.321 0.321 0.842 0 1.163l-0 0c-0.16 0.161-0.37 0.241-0.581 0.241s-0.421-0.080-0.581-0.241z"></path>
</symbol>
<symbol id="viber" viewBox="0 0 32 32">
<path d="M19.047 0h-6.095c-6.384 0-11.578 5.193-11.578 11.575v5.491c0 4.753 2.921 9.025 7.313 10.765v3.559c0 0.241 0.142 0.459 0.363 0.557 0.079 0.035 0.163 0.052 0.247 0.052 0.148 0 0.295-0.054 0.409-0.158l3.534-3.201h5.808c6.384 0 11.578-5.193 11.578-11.575v-5.491c0-6.383-5.194-11.575-11.578-11.575zM29.406 17.066c0 5.711-4.647 10.357-10.359 10.357h-6.043c-0.151 0-0.297 0.056-0.409 0.158l-2.689 2.436v-2.608c0-0.258-0.163-0.489-0.406-0.574-4.13-1.461-6.906-5.386-6.906-9.769v-5.491c0-5.711 4.647-10.357 10.359-10.357h6.095c5.712 0 10.359 4.646 10.359 10.357v5.491z"></path>
<path d="M24.053 18.582l-3.745-2.433c-0.41-0.266-0.897-0.357-1.374-0.258-0.478 0.101-0.889 0.383-1.155 0.794l-0.176 0.271c-1.621-0.536-3.408-1.22-4.478-4.318l0.443-0.385c0.761-0.661 0.84-1.818 0.179-2.58l-2.93-3.371c-0.221-0.254-0.606-0.28-0.86-0.060l-1.84 1.599c-1.614 1.403-0.86 3.478-0.612 4.16 0.011 0.030 0.024 0.060 0.040 0.088 0.064 0.115 1.592 2.841 4.059 5.354 2.477 2.523 6.95 4.854 7.087 4.921 0.511 0.331 1.085 0.491 1.654 0.491 0.998 0 1.977-0.489 2.561-1.386l1.327-2.044c0.183-0.283 0.102-0.661-0.18-0.844zM21.883 20.806c-0.549 0.846-1.684 1.086-2.58 0.508-0.044-0.023-4.488-2.337-6.829-4.723-2.189-2.23-3.642-4.707-3.84-5.053-0.483-1.353-0.397-2.185 0.283-2.776l1.38-1.199 2.53 2.91c0.225 0.258 0.199 0.636-0.059 0.86l-0.748 0.65c-0.182 0.158-0.254 0.409-0.183 0.639 1.275 4.143 3.754 4.956 5.564 5.55l0.264 0.087c0.264 0.089 0.553-0.013 0.704-0.246l0.432-0.665c0.089-0.138 0.225-0.231 0.384-0.264s0.321-0.002 0.459 0.087l3.235 2.101-0.996 1.534z"></path>
<path d="M17.391 9.901c-0.324-0.093-0.661 0.095-0.753 0.419s0.096 0.661 0.419 0.753c0.908 0.258 1.631 0.983 1.887 1.892 0.076 0.268 0.32 0.444 0.586 0.444 0.055 0 0.11-0.007 0.166-0.023 0.324-0.091 0.512-0.428 0.421-0.752-0.37-1.313-1.415-2.36-2.726-2.733z"></path>
<path d="M22.028 13.54c0.055 0 0.11-0.007 0.166-0.023 0.324-0.091 0.512-0.428 0.421-0.752-0.719-2.549-2.748-4.582-5.295-5.307-0.324-0.093-0.661 0.096-0.753 0.42s0.096 0.661 0.419 0.753c2.143 0.609 3.85 2.321 4.455 4.466 0.076 0.268 0.32 0.444 0.586 0.444z"></path>
<path d="M17.058 4.62c-0.324-0.093-0.661 0.095-0.753 0.42-0.092 0.324 0.096 0.661 0.419 0.753 3.631 1.033 6.524 3.932 7.549 7.566 0.076 0.268 0.32 0.444 0.586 0.444 0.055 0 0.11-0.007 0.166-0.023 0.324-0.091 0.512-0.428 0.421-0.752-1.139-4.038-4.353-7.26-8.388-8.408z"></path>
</symbol>
</defs>
</svg>
